<mxfile>
    <diagram id="PN6B1Rz_rMgw5LY3mmQa" name="Diagram">
        <mxGraphModel dx="762" dy="676" grid="1" gridSize="10" guides="1" tooltips="1" connect="1" arrows="1" fold="1" page="1" pageScale="1" pageWidth="827" pageHeight="1169" background="none" math="0" shadow="0">
            <root>
                <mxCell id="0"/>
                <mxCell id="1" parent="0"/>
                <mxCell id="2" value="&lt;b&gt;Tunnel&lt;/b&gt;" style="shape=umlFrame;whiteSpace=wrap;html=1;shadow=0;glass=0;labelBackgroundColor=none;sketch=1;" parent="1" vertex="1">
                    <mxGeometry width="640" height="430" as="geometry"/>
                </mxCell>
                <mxCell id="3" value="Server&lt;br&gt;&amp;lt;CommunicationTunnel&amp;gt;" style="shape=umlLifeline;perimeter=lifelinePerimeter;whiteSpace=wrap;html=1;container=1;collapsible=0;recursiveResize=0;outlineConnect=0;size=40;sketch=1;" parent="1" vertex="1">
                    <mxGeometry x="100" y="20" width="140" height="390" as="geometry"/>
                </mxCell>
                <mxCell id="6" value="" style="html=1;points=[];perimeter=orthogonalPerimeter;align=right;sketch=1;" parent="3" vertex="1">
                    <mxGeometry x="65" y="50" width="10" height="30" as="geometry"/>
                </mxCell>
                <mxCell id="12" value="" style="html=1;points=[];perimeter=orthogonalPerimeter;align=right;sketch=1;" parent="3" vertex="1">
                    <mxGeometry x="65" y="110" width="10" height="70" as="geometry"/>
                </mxCell>
                <mxCell id="24" value="" style="html=1;points=[];perimeter=orthogonalPerimeter;align=right;sketch=1;" parent="3" vertex="1">
                    <mxGeometry x="65" y="210" width="10" height="80" as="geometry"/>
                </mxCell>
                <mxCell id="5" value="Client&lt;br&gt;&amp;lt;CommunicationTunnel&amp;gt;" style="shape=umlLifeline;perimeter=lifelinePerimeter;whiteSpace=wrap;html=1;container=1;collapsible=0;recursiveResize=0;outlineConnect=0;sketch=1;" parent="1" vertex="1">
                    <mxGeometry x="374" y="20" width="140" height="390" as="geometry"/>
                </mxCell>
                <mxCell id="36" value="" style="html=1;points=[];perimeter=orthogonalPerimeter;align=right;sketch=1;" parent="5" vertex="1">
                    <mxGeometry x="66" y="276" width="10" height="54" as="geometry"/>
                </mxCell>
                <mxCell id="42" value="" style="html=1;points=[];perimeter=orthogonalPerimeter;align=right;sketch=1;" parent="5" vertex="1">
                    <mxGeometry x="66" y="70" width="10" height="130" as="geometry"/>
                </mxCell>
                <mxCell id="7" value="Create asymmetric keys&lt;br&gt;PUB i PRIV" style="text;html=1;align=center;verticalAlign=middle;resizable=0;points=[];autosize=1;sketch=1;" parent="1" vertex="1">
                    <mxGeometry x="20" y="70" width="140" height="30" as="geometry"/>
                </mxCell>
                <mxCell id="9" value="Send public key PUB" style="html=1;verticalAlign=bottom;endArrow=block;entryX=0;entryY=0;sketch=1;" parent="1" source="3" edge="1">
                    <mxGeometry relative="1" as="geometry">
                        <mxPoint x="369" y="100" as="sourcePoint"/>
                        <mxPoint x="439" y="100" as="targetPoint"/>
                    </mxGeometry>
                </mxCell>
                <mxCell id="10" value="Send encrypted &quot;hello&quot;" style="html=1;verticalAlign=bottom;endArrow=open;endSize=8;exitX=0;exitY=0.95;sketch=1;" parent="1" target="3" edge="1">
                    <mxGeometry relative="1" as="geometry">
                        <mxPoint x="369" y="176" as="targetPoint"/>
                        <mxPoint x="439" y="128.5" as="sourcePoint"/>
                    </mxGeometry>
                </mxCell>
                <mxCell id="11" value="Encrypt &quot;hello&quot; using PUB" style="text;html=1;align=center;verticalAlign=middle;resizable=0;points=[];autosize=1;sketch=1;" parent="1" vertex="1">
                    <mxGeometry x="450" y="105" width="150" height="20" as="geometry"/>
                </mxCell>
                <mxCell id="13" value="Decypt &quot;hello&quot; using PRIV" style="text;html=1;align=center;verticalAlign=middle;resizable=0;points=[];autosize=1;sketch=1;" parent="1" vertex="1">
                    <mxGeometry x="15" y="140" width="150" height="20" as="geometry"/>
                </mxCell>
                <mxCell id="25" value="Send encrypted SYM" style="html=1;verticalAlign=bottom;endArrow=block;entryX=0;entryY=0;sketch=1;" parent="1" source="5" target="24" edge="1">
                    <mxGeometry relative="1" as="geometry">
                        <mxPoint x="95" y="190" as="sourcePoint"/>
                    </mxGeometry>
                </mxCell>
                <mxCell id="26" value="Send encrypted &quot;hello&quot;" style="html=1;verticalAlign=bottom;endArrow=open;endSize=8;exitX=0;exitY=0.95;sketch=1;" parent="1" source="24" target="5" edge="1">
                    <mxGeometry relative="1" as="geometry">
                        <mxPoint x="95" y="266" as="targetPoint"/>
                    </mxGeometry>
                </mxCell>
                <mxCell id="28" style="edgeStyle=orthogonalEdgeStyle;orthogonalLoop=1;jettySize=auto;html=1;entryX=0.65;entryY=0.5;entryDx=0;entryDy=0;entryPerimeter=0;sketch=1;" parent="1" source="12" target="46" edge="1">
                    <mxGeometry relative="1" as="geometry">
                        <Array as="points">
                            <mxPoint x="170" y="195"/>
                        </Array>
                        <mxPoint x="37.00999999999999" y="193.8" as="targetPoint"/>
                    </mxGeometry>
                </mxCell>
                <mxCell id="43" value="If incorrect, break" style="edgeLabel;html=1;align=center;verticalAlign=middle;resizable=0;points=[];sketch=1;" parent="28" vertex="1" connectable="0">
                    <mxGeometry x="0.4007" y="1" relative="1" as="geometry">
                        <mxPoint x="21.2" y="-8.8" as="offset"/>
                    </mxGeometry>
                </mxCell>
                <mxCell id="31" value="Create symmetric key SYM" style="text;html=1;align=center;verticalAlign=middle;resizable=0;points=[];autosize=1;sketch=1;" parent="1" vertex="1">
                    <mxGeometry x="445" y="160" width="160" height="20" as="geometry"/>
                </mxCell>
                <mxCell id="32" value="Encrypt SYM with PUB" style="text;html=1;align=center;verticalAlign=middle;resizable=0;points=[];autosize=1;sketch=1;" parent="1" vertex="1">
                    <mxGeometry x="445" y="190" width="140" height="20" as="geometry"/>
                </mxCell>
                <mxCell id="33" value="Decypt SYM using PRIV" style="text;html=1;align=center;verticalAlign=middle;resizable=0;points=[];autosize=1;sketch=1;" parent="1" vertex="1">
                    <mxGeometry x="10" y="240" width="150" height="20" as="geometry"/>
                </mxCell>
                <mxCell id="34" value="Encrypt &quot;hello&quot; using SYM" style="text;html=1;align=center;verticalAlign=middle;resizable=0;points=[];autosize=1;sketch=1;" parent="1" vertex="1">
                    <mxGeometry x="10" y="280" width="150" height="20" as="geometry"/>
                </mxCell>
                <mxCell id="38" value="Decypt &quot;hello&quot; using SYM" style="text;html=1;align=center;verticalAlign=middle;resizable=0;points=[];autosize=1;sketch=1;" parent="1" vertex="1">
                    <mxGeometry x="450" y="300" width="150" height="20" as="geometry"/>
                </mxCell>
                <mxCell id="40" style="edgeStyle=orthogonalEdgeStyle;orthogonalLoop=1;jettySize=auto;html=1;entryX=0.5;entryY=0.29;entryDx=0;entryDy=0;entryPerimeter=0;sketch=1;" parent="1" source="36" target="48" edge="1">
                    <mxGeometry relative="1" as="geometry">
                        <mxPoint x="564.61" y="375.81000000000006" as="targetPoint"/>
                        <Array as="points">
                            <mxPoint x="548" y="346"/>
                            <mxPoint x="548" y="379"/>
                        </Array>
                    </mxGeometry>
                </mxCell>
                <mxCell id="44" value="If incorrect, break" style="edgeLabel;html=1;align=center;verticalAlign=middle;resizable=0;points=[];sketch=1;" parent="40" vertex="1" connectable="0">
                    <mxGeometry x="-0.2421" y="4" relative="1" as="geometry">
                        <mxPoint x="14" y="-4" as="offset"/>
                    </mxGeometry>
                </mxCell>
                <mxCell id="41" value="Encrypted communication using SYM" style="shape=doubleArrow;whiteSpace=wrap;html=1;align=center;arrowWidth=0.6849990844726562;arrowSize=0.23629625108506944;sketch=1;" parent="1" vertex="1">
                    <mxGeometry x="175" y="360" width="270" height="40" as="geometry"/>
                </mxCell>
                <mxCell id="46" value="" style="verticalLabelPosition=bottom;verticalAlign=top;html=1;shape=mxgraph.basic.x;sketch=1;fillColor=#7D1919;" vertex="1" parent="1">
                    <mxGeometry x="20" y="180" width="35" height="30" as="geometry"/>
                </mxCell>
                <mxCell id="48" value="" style="verticalLabelPosition=bottom;verticalAlign=top;html=1;shape=mxgraph.basic.x;sketch=1;fillColor=#7D1919;" vertex="1" parent="1">
                    <mxGeometry x="530" y="370" width="35" height="30" as="geometry"/>
                </mxCell>
            </root>
        </mxGraphModel>
    </diagram>
</mxfile>
